<svg xmlns="http://www.w3.org/2000/svg" width="1920" height="1080" fill="none"><g clip-path="url(#a)"><path fill="#000" d="M0 0h1920v1080H0z"/><path fill="#000" d="M-26-818.27h1920.72v2716.43H-26z"/><path fill="#7400FF" d="m1388.59 277.22 65.4 50.33-22.26 10.3-41.95-32.46-2.41 53.07-22.27 10.3 3.91-82.41 19.58-9.13ZM1452.83 496.3l37.78 73.4h-24.52l-24.26-47.3-24.75 47.02h-24.52l38.72-72.99 21.55-.13ZM1418.27 721.84l3.23 82.47-22.17-10.45-2.03-53.14-42.3 32.26-22.13-10.62 65.75-49.78 19.65 9.26ZM1291.37 911.5l-31.97 76.11-15.65-18.74 20.68-48.98-51.98 11.2-15.65-18.88 80.67-17.3 13.9 16.59ZM1096.27 1029.78l-61.31 55.44-6.19-23.72 39.42-35.65-51.68-11.81-6.2-23.72 80.47 18.46 5.49 21ZM869.47 1054.11l-78.89 24.46 4.42-24.1 50.79-15.65-41.95-32.59 4.42-24.1 65.08 50.62-3.87 21.36ZM653.28 980.35l-81.63-11.48 14.23-19.94 52.66 7.42L614.37 909l14.23-19.97 37.4 73.6-12.72 17.71ZM489.15 822l-69.3-44.86 21.32-12.1 44.6 29.04-1.9-53.14 21.32-12.07 2.87 82.48-18.9 10.64ZM407.13 608.97l-43.69-70.01 24.46-1.9 28.07 45.17 20.81-48.95 24.46-1.87-32.46 75.89-21.65 1.67ZM423.2 381.37l-10.1-81.92 22.97 8.58 6.46 52.79 39.52-35.5 22.98 8.59-61.3 55.14-20.53-7.68Z"/><path fill="#0F02B7" d="m1464.54 136.4 71.96 40.44-20.56 13.39-46.33-26.04 5.26 52.88-20.52 13.4-8-82.16 18.19-11.9ZM1565.15 337.78l54.47 62.01-23.81 5.81-35.01-40.1-12.65 51.62-23.81 5.8 19.75-80.01 21.06-5.13ZM1593.35 561.1l30.59 76.65-24.39-2.48-19.62-49.4-29.04 44.46-24.39-2.48 45.4-68.95 21.45 2.2ZM1545.28 780.95l3.22 82.47-22.16-10.45-1.88-53.11-42.3 32.26-22.23-10.51 65.73-49.92 19.62 9.26ZM1426.92 972.35l-24.23 78.89-17.45-17.2 15.68-50.78-50.69 16.32-17.46-17.2 78.76-25.26 15.39 15.23ZM601.95 1112.22l-82.24-7.03 13.16-20.68 52.95 4.61-26.65-46.04 13.16-20.68 41.27 71.46-11.65 18.36ZM426.9 970.67l-75.2-34.07 19.36-15.13 48.4 22-9.69-52.27 19.36-15.1 15.1 81.15-17.32 13.42ZM309.27 778.82l-59.53-57.17 23.23-7.81 38.3 36.88 8.2-52.53 23.23-7.8-12.91 81.5-20.52 6.93Z"/><path fill="#FF00E9" d="m1499.27-45.44 77.63 28.04-18.04 16.58-49.98-18.13 13.88 51.3-18.04 16.62-21.43-79.7 15.98-14.71ZM1634.33 131.8l67.11 48-21.84 11.07-43.2-30.97-.55 53.14-21.88 11.1 1-82.54 19.36-9.8ZM1716.55 339.14l51.62 64.53-24.3 4.68-33.1-41.6-15 51.02-24.07 4.7 23.42-79.14 21.43-4.2ZM1738.97 561l31.94 76.08-24.42-2.04-20.53-49.04-28.33 44.98-24.45-2.07 44.14-69.82 21.65 1.9ZM1700.15 780.53l10.13 81.86-22.97-8.62-6.46-52.75-39.49 35.5-22.94-8.6 61.3-55.16 20.43 7.77ZM1603.35 981.29l-12.52 81.6-19.74-14.49 8.22-52.53-47.65 23.53-19.78-14.49 74.21-36.46 17.26 12.84ZM423.46 1167.5l-80.28-19.2 16.14-18.52 51.62 12.45-19.52-49.43 16.13-18.52 30.2 76.82-14.29 16.4ZM269.32 1006.2l-71.95-40.4 20.52-13.42 46.4 26.17-5.23-52.89 20.52-13.42 8.04 82.15-18.3 11.81Z"/><g fill="#fff" clip-path="url(#b)"><path d="M872.16 110.2c.7.06 1.48.12 2.19.12 9.22 0 15.35-5.55 16.38-14.8h-8.12c-.58 3.9-2.9 7.6-7.16 8.04A8.12 8.12 0 0 1 867 98.9a15.44 15.44 0 0 1-1.36-6.12c-.13-2.23.07-4.6.78-6.7 1.1-3.38 3.6-6.06 7.29-6.32a7.87 7.87 0 0 1 5.8 1.85 10.3 10.3 0 0 1 3.03 6.13h8.2c-.65-5.42-3.36-10.6-8.46-13.02-4.9-2.36-11.35-2.23-16.25 0-4.77 2.17-7.74 6.57-8.77 11.61-1.1 5.43-.71 11.74 2.26 16.6 2.77 4.4 7.54 6.82 12.64 7.27ZM916.53 87.74c-2-1.85-4.7-2.8-7.41-3.13-.78-.06-1.62-.13-2.4-.13-2.9 0-5.86.58-8.31 2.11-2.2 1.4-3.74 3.5-4.58 6-1.61 5.1-.65 11.67 3.8 15.05 2.26 1.73 5.1 2.43 7.87 2.62 2.9.2 6-.2 8.58-1.6 5.16-2.67 6.77-8.74 5.87-14.16a11.06 11.06 0 0 0-3.42-6.76ZM911.9 98.7c-.32 2.81-2.06 5.17-5.1 5.17-2.58 0-4.38-1.72-4.96-4.15-.58-2.42-.39-5.68 1.48-7.53a5.2 5.2 0 0 1 6.32-.5c2.13 1.46 2.52 4.59 2.26 7.01ZM941.3 93.74h-.13c0-2.17-.45-4.53-1.87-6.26a7.7 7.7 0 0 0-5.03-2.8c-2-.32-4.2-.13-6.06.83a9.2 9.2 0 0 0-3.8 4.01 16.31 16.31 0 0 0-1.56 6.96c-.06 2.49.13 5.1.97 7.46.64 1.85 1.74 3.51 3.29 4.73a9.12 9.12 0 0 0 5.48 1.65c2.32 0 4.65-.76 6.26-2.48 1.67-1.85 2.32-4.34 2.32-6.77h.13v8.74h8.2V73h-8.2v20.74Zm.32 4.59c-.26 2.8-2 5.55-5.1 5.55a4.84 4.84 0 0 1-4.83-3.83c-.65-2.36-.52-5.61 1.16-7.53a4.87 4.87 0 0 1 6.13-.95c2.19 1.27 2.84 4.27 2.64 6.76ZM966.13 84.48c-3.74 0-7.6 1.09-10.06 4.09-2.52 3-3.1 7.14-2.65 10.9.4 3.64 2.07 7.09 5.3 9 3.41 2.05 8 2.3 11.8 1.28 4.38-1.15 7.6-4.47 8.32-8.93h-7.94c-.64 2.61-3.54 3.89-6.06 3.19-2.58-.7-3.48-3.45-3.61-5.8h17.54v-.9c0-8.04-4.7-12.83-12.64-12.83ZM961.3 95.9c.26-2.67 1.75-5.35 4.78-5.35 3.1-.07 4.45 2.68 4.77 5.35h-9.55ZM865.77 124.17l-10.64 36.24h8.58l2.26-8.42h14.25l2.2 8.42h9.02l-10.51-36.24h-15.16Zm1.87 21.3 5.42-20.66h.13l5.42 20.67h-10.97ZM905.57 154.47c-3.87 0-5.23-3.7-5.1-7.01.07-1.66.45-3.45 1.68-4.72a4.66 4.66 0 0 1 4.32-1.22c2.06.39 3.36 2.04 3.8 3.96h8.07a11.98 11.98 0 0 0-3.16-6.9 12.25 12.25 0 0 0-6.77-3.25c-5.03-.83-11.03.32-14.13 4.73a12.6 12.6 0 0 0-2.2 7.08c-.12 2.55.27 5.23 1.5 7.59 2.44 4.72 7.8 6.44 12.9 6.19 2.96-.13 5.92-.96 8.12-2.94a11.99 11.99 0 0 0 3.8-7.52h-8.06c-.64 2.55-2.32 4.01-4.77 4.01ZM939.17 144.33h-.13c0-2.17-.45-4.53-1.87-6.25a7.7 7.7 0 0 0-5.03-2.8c-2-.33-4.2-.14-6.06.82a9.2 9.2 0 0 0-3.8 4.02 16.31 16.31 0 0 0-1.55 6.95c-.07 2.5.12 5.1.96 7.47a10.2 10.2 0 0 0 3.3 4.72 9.12 9.12 0 0 0 5.47 1.66c2.33 0 4.65-.77 6.26-2.49 1.68-1.85 2.32-4.34 2.32-6.76h.13v8.74h8.2v-24.82h-8.2v8.74Zm.32 4.6c-.25 2.8-2 5.54-5.1 5.54a4.84 4.84 0 0 1-4.83-3.82c-.64-2.36-.51-5.62 1.16-7.53a4.87 4.87 0 0 1 6.13-.96c2.2 1.28 2.84 4.28 2.64 6.77ZM969.74 144.33h-.13c0-2.17-.45-4.53-1.87-6.25a7.7 7.7 0 0 0-5.03-2.8c-2-.33-4.19-.14-6.06.82a9.2 9.2 0 0 0-3.8 4.02 16.31 16.31 0 0 0-1.55 6.95c-.07 2.5.13 5.1.96 7.47a10.2 10.2 0 0 0 3.3 4.72 9.12 9.12 0 0 0 5.48 1.66c2.32 0 4.64-.77 6.25-2.49 1.68-1.85 2.32-4.34 2.32-6.76h.13v8.74h8.2v-36.24h-8.2v20.16Zm.26 4.6c-.26 2.8-2 5.54-5.1 5.54a4.84 4.84 0 0 1-4.83-3.82c-.65-2.36-.52-5.62 1.16-7.53a4.87 4.87 0 0 1 6.13-.96c2.25 1.28 2.9 4.28 2.64 6.77ZM994.58 135.08c-3.75 0-7.62 1.08-10.07 4.08-2.51 3-3.1 7.15-2.64 10.91.39 3.64 2.06 7.09 5.29 9 3.42 2.04 8 2.3 11.8 1.28 4.39-1.15 7.61-4.47 8.32-8.94h-7.93c-.65 2.62-3.55 3.9-6.06 3.2-2.58-.7-3.49-3.45-3.62-5.81h17.55v-.9c0-8.1-4.71-12.82-12.64-12.82Zm-4.9 11.42c.25-2.68 1.74-5.36 4.77-5.36 3.1-.06 4.45 2.68 4.77 5.36h-9.55ZM1042.82 135.08c-4.77 0-7.55 3.44-7.55 9.31h-.13c0-3.57-1.35-7.4-4.96-8.8-3.23-1.21-7.29-.45-9.35 2.49a11.24 11.24 0 0 0-1.68 6.25h-.13v-8.74h-8.19v24.82h8.19v-13.53c0-2.3.84-4.97 3.48-5.36 1.1-.12 2.33.07 3.16.83.91.83 1.23 2.1 1.23 3.32v14.74h8.19v-13.53c0-2.3.84-4.97 3.48-5.36 1.1-.12 2.33.07 3.16.83.91.83 1.23 2.1 1.23 3.32v14.74h8.19v-15.19c.07-6.38-3.03-10.14-8.32-10.14ZM1071.33 135.59l-4.45 24.25h-.13l-4.45-24.25h-8.77l5.61 24.82h6.71l-2.39 10.59h8.77l7.87-35.41h-8.77ZM766.57 124.74h10.97c2.13 0 4.13.83 5.55 2.17a6.2 6.2 0 0 1 9.42 0 8.25 8.25 0 0 1 5.54-2.17H809c1.68 0 3.3.51 4.58 1.4l.07-.06a7.54 7.54 0 0 1-2-5.1V116.96a7.9 7.9 0 0 0-4.77-7.15 8.01 8.01 0 0 0-9.3 2.17c-2.25 3.06-6 4.98-9.8 4.98-3.87 0-7.54-1.85-9.8-4.91a8.16 8.16 0 0 0-9.22-2.24 7.88 7.88 0 0 0-4.84 7.21v3.83a8 8 0 0 1-2 5.23l.07.07c1.35-.9 2.9-1.4 4.57-1.4ZM777.6 128.83h-10.96a4.13 4.13 0 0 0-4.13 4.08v7.53c0 2.1 1.68 3.76 3.8 3.76h11.3a4.13 4.13 0 0 0 4.12-4.08v-7.27a4.12 4.12 0 0 0-4.13-4.02Zm-1.48 11.54h-7.93v-7.78h3.93a3.9 3.9 0 0 0 3.93 3.77v4.01h.07ZM809.14 128.83h-11.03a4.13 4.13 0 0 0-4.13 4.08v7.21a4.13 4.13 0 0 0 4.13 4.08h11.29c2.13 0 3.8-1.66 3.8-3.76v-7.6c0-2.23-1.8-4.01-4.06-4.01Zm-1.55 11.54h-7.93v-7.78h3.94a3.9 3.9 0 0 0 3.93 3.77v4.01h.06Z"/><path d="M742 125.64a45.2 45.2 0 0 0 8.51 26.28 46.23 46.23 0 0 0 21.61 16.27 46.72 46.72 0 0 0 28.19 1.09 45.77 45.77 0 0 0 22.9-14.8 45.13 45.13 0 0 0 10.31-25.27c.07-1.21.13-2.36.13-3.57V73H742v52.64Zm14-4.79v-3.89c0-3.7.64-7.4 2-10.91a31.84 31.84 0 0 1 29.92-20.42H803.8v7.91h8v7.92h8v27.17a8.11 8.11 0 0 1-4.45-1.33l-.07.06a8.16 8.16 0 0 1 2.13 5.42v7.53a7.88 7.88 0 0 1-7.93 7.85H798.1a8.16 8.16 0 0 1-8.19-8.1v-9.25c0-2.75-4.13-2.75-4.13 0v9.25c0 4.46-3.67 8.1-8.19 8.1h-11.28a7.88 7.88 0 0 1-7.94-7.85v-7.46c0-2.1.84-4.02 2.13-5.43l-.06-.06a7.9 7.9 0 0 1-4.39 1.34H756v-7.85Z"/></g></g><defs><clipPath id="a"><path fill="#fff" d="M0 0h1920v1080H0z"/></clipPath><clipPath id="b"><path fill="#fff" d="M742 73h338.1v98H742z"/></clipPath></defs></svg>