<svg version="1.2" xmlns="http://www.w3.org/2000/svg" viewBox="0 0 1920 1080" width="1920" height="1080"><defs><clipPath clipPathUnits="userSpaceOnUse" id="cp1"><path d="m0 0h1920v1080h-1920z"/></clipPath></defs><style>.a{fill:#7400ff}.b{fill:#0f02b7}.c{fill:#ff00e9}</style><g clip-path="url(#cp1)"><path  d="m0 0h1920v1080h-1920z"/><path  d="m-26-818.3h1920.7v2716.5h-1920.7z"/><path class="a" d="m1388.6 277.2l65.4 50.4-22.3 10.3-41.9-32.5-2.4 53.1-22.3 10.3 3.9-82.4zm64.3 219l37.7 73.4h-24.5l-24.2-47.3-24.8 47.1h-24.5l38.7-73zm-34.6 225.5l3.3 82.5-22.2-10.5-2-53.1-42.3 32.2-22.2-10.6 65.8-49.8zm-126.9 189.7l-32 76.1-15.6-18.7 20.6-49-51.9 11.2-15.7-18.9 80.7-17.3zm-195.1 118.3l-61.3 55.4-6.2-23.7 39.4-35.6-51.7-11.8-6.2-23.8 80.5 18.5zm-226.8 24.3l-78.9 24.5 4.4-24.1 50.8-15.7-41.9-32.6 4.4-24.1 65.1 50.7zm-216.2-73.8l-81.7-11.5 14.3-19.9 52.6 7.4-24.1-47.3 14.2-20 37.4 73.6c0 0-12.7 17.7-12.7 17.7zm-164.2-158.3l-69.3-44.9 21.4-12.1 44.6 29-1.9-53.1 21.3-12.1 2.9 82.5-18.9 10.6zm-82.1-213l-43.7-70 24.5-1.9 28.1 45.2 20.8-49 24.4-1.9-32.4 75.9zm16.1-227.6l-10.1-81.9 22.9 8.6 6.5 52.8 39.5-35.5 23 8.6-61.3 55.1z"/><path class="b" d="m1464.5 136.4l72 40.4-20.6 13.4-46.3-26 5.3 52.9-20.5 13.4-8-82.2 18.1-11.9zm100.7 201.4l54.4 62-23.8 5.8-35-40.1-12.6 51.6-23.9 5.8 19.8-80zm28.2 223.3l30.6 76.7-24.4-2.5-19.6-49.4-29.1 44.5-24.4-2.5 45.4-69zm-48 219.9l3.2 82.5-22.2-10.5-1.8-53.1-42.3 32.3-22.3-10.6 65.8-49.9zm-118.4 191.4l-24.2 78.9-17.5-17.2 15.7-50.8-50.7 16.4-17.5-17.2 78.8-25.3zm-825 139.9l-82.2-7.1 13.2-20.6 52.9 4.6-26.6-46.1 13.1-20.7 41.3 71.5zm-175.1-141.5l-75.2-34.1 19.4-15.1 48.4 22-9.7-52.3 19.4-15.1 15.1 81.1-17.4 13.5zm-117.6-191.9l-59.5-57.2 23.2-7.8 38.3 36.9 8.2-52.5 23.2-7.8-12.9 81.5z"/><path class="c" d="m1499.3-45.4l77.6 28-18 16.6-50-18.2 13.9 51.3-18.1 16.7-21.4-79.7zm135.1 177.2l67.1 48-21.9 11.1-43.2-31-0.5 53.2-21.9 11.1 1-82.6zm82.2 207.3l51.6 64.6-24.3 4.7-33.1-41.6-15 51-24 4.7 23.4-79.2 21.4-4.2zm22.4 221.9l32 76.1-24.4-2.1-20.6-49-28.3 45-24.5-2.1 44.2-69.8c0 0 21.6 1.9 21.6 1.9zm-38.8 219.5l10.1 81.9-22.9-8.6-6.5-52.8-39.5 35.5-22.9-8.6 61.3-55.1zm-96.8 200.7l-12.5 81.6-19.8-14.5 8.2-52.5-47.6 23.5-19.8-14.5 74.2-36.4zm-1179.9 186.2l-80.2-19.2 16.1-18.5 51.6 12.4-19.5-49.4 16.1-18.5 30.2 76.8zm-154.1-161.3l-72-40.4 20.6-13.4 46.4 26.1-5.3-52.9 20.5-13.4 8.1 82.2z"/></g></svg>